<?xml version="1.0" encoding="UTF-8" standalone="no"?>
<svg width="32px" height="32px" viewBox="0 0 32 32" version="1.1" xmlns="http://www.w3.org/2000/svg" xmlns:xlink="http://www.w3.org/1999/xlink">
    <!-- Generator: Sketch 42 (36781) - http://www.bohemiancoding.com/sketch -->
    <title>Fill 183</title>
    <desc>Created with Sketch.</desc>
    <defs></defs>
    <g id="Page-1" stroke="none" stroke-width="1" fill="none" fill-rule="evenodd">
        <g id="contest_01" transform="translate(-1168.000000, -56.000000)" fill="#F8E71C">
            <path d="M1188.155,66.656 L1186.649,66.657 C1185.468,66.657 1185.239,67.218 1185.239,68.041 L1185.239,69.857 L1188.056,69.857 L1187.689,72.702 L1185.239,72.702 L1185.239,80 L1182.302,80 L1182.302,72.702 L1179.846,72.702 L1179.846,69.857 L1182.302,69.857 L1182.302,67.76 C1182.302,65.325 1183.789,64 1185.96,64 C1187,64 1187.894,64.077 1188.155,64.112 L1188.155,66.656 Z M1168,72 C1168,80.836 1175.164,88 1184,88 C1192.837,88 1200,80.836 1200,72 C1200,63.163 1192.837,56 1184,56 C1175.164,56 1168,63.163 1168,72 Z" id="Fill-183"></path>
        </g>
    </g>
</svg>